<?xml version="1.0" encoding="iso-8859-1"?>
<!-- Uploaded to: SVG Repo, www.svgrepo.com, Generator: SVG Repo Mixer Tools -->
<svg fill="#000000" height="800px" width="800px" version="1.1" id="Layer_1" xmlns="http://www.w3.org/2000/svg" xmlns:xlink="http://www.w3.org/1999/xlink" 
	 viewBox="0 0 485 485" xml:space="preserve">
<g>
	<path d="M312.867,237.242l10.602,44.864l10.874,50.586l-50.575-10.875l-44.886-10.559L117.748,190.126
		c-8.938,19.002-13.965,40.205-13.965,62.596c0,81.337,65.94,147.277,147.288,147.277c81.337,0,147.277-65.94,147.277-147.277
		s-65.94-147.277-147.277-147.277c-20.612,0-40.226,4.249-58.043,11.895l119.829,119.816
		C312.857,237.156,312.911,237.22,312.867,237.242z"/>
	<path d="M315.223,279.14l-7.897-34.674c-27.187,12.484-48.725,34.023-61.199,61.209l34.674,7.896
		C288.163,298.847,300.51,286.503,315.223,279.14z"/>
	<path d="M193.027,117.34L160.69,85c-30.089,18.604-55.435,43.949-74.038,74.039l31.096,31.088
		C133.051,157.587,159.901,131.558,193.027,117.34z"/>
	<path d="M0,0v485h485V0H0z M455,455H30V30h425V455z"/>
</g>
</svg>